<svg role="img" xmlns="http://www.w3.org/2000/svg" viewBox="0 0 192 192">
  <title>h-cite</title>
  <path fill="currentcolor" fill-rule="evenodd"
    d="M48 56v60a32 32 0 0 0 32 32h52v8c0 11-9 20-20 20H32c-11 0-20-9-20-20V76c0-11 9-20 20-20h16Zm32-40h80c11 0 20 9 20 20v80c0 11-9 20-20 20H80c-11 0-20-9-20-20V36c0-11 9-20 20-20Zm4 60V52a4 4 0 0 1 4-4h24a4 4 0 0 1 4 4v22.1a16 16 0 0 1-3.8 10.4l-13.5 15.8a2 2 0 0 1-3.5-1.6L100 80H88a4 4 0 0 1-4-4Zm40 0V52a4 4 0 0 1 4-4h24a4 4 0 0 1 4 4v22.1a16 16 0 0 1-3.8 10.4l-13.5 15.8a2 2 0 0 1-3.5-1.6L140 80h-12a4 4 0 0 1-4-4Z" />
</svg>
