<svg xmlns="http://www.w3.org/2000/svg" viewBox="0 0 192 192">
  <title>h-review</title>
  <path fill="currentcolor" fill-rule="evenodd"
    d="M48 56v60a32 32 0 0 0 32 32h52v8c0 11-9 20-20 20H32c-11 0-20-9-20-20V76c0-11 9-20 20-20h16Zm112-40c11 0 20 9 20 20v80c0 11-9 20-20 20H80c-11 0-20-9-20-20V36c0-11 9-20 20-20h80Zm-39.3 22.3a2 2 0 0 0-2.6 1.2l-8.6 25.2a2 2 0 0 1-2 1.3h-25a2 2 0 0 0-1.1 3.7L102.7 84a2 2 0 0 1 .8 2.3L95.1 111a2 2 0 0 0 3 2.3L118.8 98a2 2 0 0 1 2.4 0l20.6 15.3a2 2 0 0 0 3.1-2.3l-8.4-24.5a2 2 0 0 1 .8-2.3l21.3-14.4a2 2 0 0 0-1.1-3.7h-25a2 2 0 0 1-2-1.3L122 39.5a2 2 0 0 0-1.2-1.2Z" />
</svg>
