<svg role="img" xmlns="http://www.w3.org/2000/svg" viewBox="0 0 192 192">
  <title>Microformats</title>
  <path fill-rule="evenodd"
    d="M60 56v52a24 24 0 0 0 24 24h48v24c0 11-9 20-20 20H32c-11 0-20-9-20-20V76c0-11 9-20 20-20h28Zm60-28v32a16 16 0 0 0 16 16h28v28a16 16 0 0 1-16 16H88a16 16 0 0 1-16-16V44a16 16 0 0 1 16-16h32Zm49.7-12c3.6 0 4.9.4 6.2 1 1.3.8 2.3 1.8 3 3 .7 1.4 1.1 2.7 1.1 6.3v27.4a13 13 0 0 1-1 6.2 7.3 7.3 0 0 1-3 3c-1.4.7-2.7 1.1-6.3 1.1h-27.4a13 13 0 0 1-6.2-1 7.3 7.3 0 0 1-3-3c-.7-1.4-1.1-2.7-1.1-6.3V26.3c0-3.6.4-4.9 1-6.2a7.3 7.3 0 0 1 3-3c1.4-.7 2.7-1.1 6.3-1.1h27.4Z" />
</svg>
