<svg xmlns="http://www.w3.org/2000/svg" viewBox="0 0 192 192">
  <title>PESOS</title>
  <path fill="currentcolor" fill-rule="evenodd"
    d="M125.5 97.5a12 12 0 0 0 8.8-8.2l38.6-9a6 6 0 1 0-2.7-11.6l-38.6 8.9a12 12 0 0 0-14-2.6 12 12 0 0 0 1-14.8L136 24.6a6 6 0 1 0-10.8-5.2L107.8 55a12 12 0 1 0 6.2 22.7 12 12 0 0 0 11.5 19.8ZM73.8 72.2A12 12 0 1 0 85.5 55L68 19.4a6 6 0 1 0-10.8 5.2l17.4 35.6a12 12 0 0 0-.9 12Zm7.6 16.3a12 12 0 0 0-20.5-11l-38.5-8.8a6 6 0 0 0-2.7 11.7l38.5 8.9a12 12 0 0 0 23.2-.8Zm14.9 87.7a6 6 0 0 0 6-6v-39.6a12 12 0 0 0 5-15.2 12 12 0 0 0 14.7 5.2l30.7 24.9a6 6 0 0 0 7.6-9.3l-30.8-25a12 12 0 1 0-22.9 3 12 12 0 0 0-21 .5 12 12 0 1 0-22.6-3.5l-30.8 25a6 6 0 0 0 7.6 9.3l30.8-25a12 12 0 0 0 15-5.7 12 12 0 0 0 4.7 15.8v39.6a6 6 0 0 0 6 6Z" />
</svg>
