<svg xmlns="http://www.w3.org/2000/svg" viewBox="0 0 192 192">
  <title>POSSE</title>
  <path fill-rule="evenodd"
    d="M96.1 16a12 12 0 0 1 6 22.4v36.4a24 24 0 0 1 9.2 4.7l29-23.2a12 12 0 1 1 7.5 9.4l-29.5 23.5a24 24 0 0 1 1.7 8.2v.7l37.7 8.6a12 12 0 1 1-2.7 11.7l-38-8.7a24.1 24.1 0 0 1-5.2 6.4l17.4 36.2a12 12 0 1 1-10.8 5.2l-17.4-36a24.1 24.1 0 0 1-9.6 0l-17.2 36a12 12 0 1 1-10.9-5.2l17.3-35.9c-2.2-1.8-4-4-5.5-6.6l-37.6 8.6a12 12 0 1 1-2.7-11.7L72 98.2V98c0-3.7.9-7.3 2.4-10.4l-28.7-23a12 12 0 1 1 7.5-9.3l29 23c2.3-1.6 5-2.8 8-3.6V38.4a12 12 0 0 1 6-22.4Z" />
</svg>
